<svg width="45" height="44" viewBox="0 0 45 44" fill="none" xmlns="http://www.w3.org/2000/svg">
<circle cx="22.5" cy="22" r="22" fill="#00F4C8"/>
<path fill-rule="evenodd" clip-rule="evenodd" d="M29.3431 14.831L32.5865 18.086C32.8081 18.3077 32.8081 18.681 32.5748 18.9027L29.3315 22.1577C28.9698 22.531 28.3398 22.2744 28.3398 21.7494V19.661H21.3281C20.6865 19.661 20.1615 19.136 20.1615 18.4944C20.1615 17.8527 20.6865 17.3277 21.3281 17.3277H28.3515V15.2394C28.3515 14.726 28.9815 14.4577 29.3431 14.831ZM12.4148 25.086L15.6581 21.831C16.0198 21.4577 16.6498 21.7144 16.6498 22.2394V24.3277H23.6615C24.3031 24.3277 24.8281 24.8527 24.8281 25.4944C24.8281 26.136 24.3031 26.661 23.6615 26.661H16.6498V28.761C16.6498 29.2744 16.0198 29.5427 15.6581 29.1694L12.4148 25.9144C12.1931 25.681 12.1931 25.3194 12.4148 25.086Z" fill="black"/>
</svg>
