<svg width="25" height="24" viewBox="0 0 25 24" fill="none" xmlns="http://www.w3.org/2000/svg">
<path d="M21.75 18.75H21V3.75C21 3.55109 20.921 3.36032 20.7803 3.21967C20.6397 3.07902 20.4489 3 20.25 3H15C14.8011 3 14.6103 3.07902 14.4697 3.21967C14.329 3.36032 14.25 3.55109 14.25 3.75V7.5H9.75C9.55109 7.5 9.36032 7.57902 9.21967 7.71967C9.07902 7.86032 9 8.05109 9 8.25V12H5.25C5.05109 12 4.86032 12.079 4.71967 12.2197C4.57902 12.3603 4.5 12.5511 4.5 12.75V18.75H3.75C3.55109 18.75 3.36032 18.829 3.21967 18.9697C3.07902 19.1103 3 19.3011 3 19.5C3 19.6989 3.07902 19.8897 3.21967 20.0303C3.36032 20.171 3.55109 20.25 3.75 20.25H21.75C21.9489 20.25 22.1397 20.171 22.2803 20.0303C22.421 19.8897 22.5 19.6989 22.5 19.5C22.5 19.3011 22.421 19.1103 22.2803 18.9697C22.1397 18.829 21.9489 18.75 21.75 18.75ZM15.75 4.5H19.5V18.75H15.75V4.5ZM10.5 9H14.25V18.75H10.5V9ZM6 13.5H9V18.75H6V13.5Z" fill="#838383"/>
</svg>
