<svg width="25" height="24" viewBox="0 0 25 24" fill="none" xmlns="http://www.w3.org/2000/svg">
<path d="M12.499 12.7495C15.394 12.7495 17.749 10.3945 17.749 7.49951C17.749 4.60451 15.394 2.24951 12.499 2.24951C9.60396 2.24951 7.24896 4.60451 7.24896 7.49951C7.24896 10.3945 9.60396 12.7495 12.499 12.7495ZM12.499 3.74951C14.567 3.74951 16.249 5.43151 16.249 7.49951C16.249 9.56751 14.567 11.2495 12.499 11.2495C10.431 11.2495 8.74896 9.56751 8.74896 7.49951C8.74896 5.43151 10.431 3.74951 12.499 3.74951ZM20.249 17.9666V18.9775C20.249 19.9125 19.908 20.8085 19.288 21.4995C19.14 21.6655 18.9349 21.7495 18.7289 21.7495C18.5509 21.7495 18.3719 21.6865 18.2289 21.5585C17.9199 21.2825 17.895 20.8085 18.171 20.4995C18.544 20.0825 18.7499 19.5425 18.7499 18.9785V17.9675C18.7499 16.4535 17.7459 15.1435 16.3069 14.7825C16.0539 14.7185 15.782 14.7535 15.561 14.8785C13.66 15.9365 11.3339 15.9325 9.44495 14.8815C9.21895 14.7525 8.94697 14.7155 8.69397 14.7815C7.25497 15.1435 6.24994 16.4535 6.24994 17.9675V18.9785C6.24994 19.5435 6.45598 20.0835 6.82898 20.4995C7.10498 20.8085 7.07894 21.2825 6.77094 21.5585C6.46094 21.8355 5.98698 21.8085 5.71198 21.5005C5.09198 20.8085 4.75098 19.9125 4.75098 18.9785V17.9675C4.75098 15.7655 6.22194 13.8575 8.32794 13.3275C8.95094 13.1695 9.62795 13.2596 10.1819 13.5756C11.6119 14.3716 13.384 14.3745 14.826 13.5725C15.373 13.2605 16.05 13.1715 16.675 13.3285C18.778 13.8555 20.249 15.7636 20.249 17.9666Z" fill="#838383"/>
</svg>
