<svg width="25" height="24" viewBox="0 0 25 24" fill="none" xmlns="http://www.w3.org/2000/svg">
<path d="M20.5 6.75H5.5C5.30109 6.75 5.11032 6.67098 4.96967 6.53033C4.82902 6.38968 4.75 6.19891 4.75 6C4.75 5.80109 4.82902 5.61032 4.96967 5.46967C5.11032 5.32902 5.30109 5.25 5.5 5.25H18.25C18.4489 5.25 18.6397 5.17098 18.7803 5.03033C18.921 4.88968 19 4.69891 19 4.5C19 4.30109 18.921 4.11032 18.7803 3.96967C18.6397 3.82902 18.4489 3.75 18.25 3.75H5.5C4.90326 3.75 4.33097 3.98705 3.90901 4.40901C3.48705 4.83097 3.25 5.40326 3.25 6V18C3.25 18.5967 3.48705 19.169 3.90901 19.591C4.33097 20.0129 4.90326 20.25 5.5 20.25H20.5C20.8978 20.25 21.2794 20.092 21.5607 19.8107C21.842 19.5294 22 19.1478 22 18.75V8.25C22 7.85218 21.842 7.47064 21.5607 7.18934C21.2794 6.90804 20.8978 6.75 20.5 6.75ZM20.5 18.75H5.5C5.30109 18.75 5.11032 18.671 4.96967 18.5303C4.82902 18.3897 4.75 18.1989 4.75 18V8.12156C4.99082 8.20693 5.2445 8.25037 5.5 8.25H20.5V18.75ZM16 13.125C16 12.9025 16.066 12.685 16.1896 12.5C16.3132 12.315 16.4889 12.1708 16.6945 12.0856C16.9 12.0005 17.1262 11.9782 17.3445 12.0216C17.5627 12.065 17.7632 12.1722 17.9205 12.3295C18.0778 12.4868 18.185 12.6873 18.2284 12.9055C18.2718 13.1238 18.2495 13.35 18.1644 13.5555C18.0792 13.7611 17.935 13.9368 17.75 14.0604C17.565 14.184 17.3475 14.25 17.125 14.25C16.8266 14.25 16.5405 14.1315 16.3295 13.9205C16.1185 13.7095 16 13.4234 16 13.125Z" fill="#838383"/>
</svg>
